<svg width="100" height="100" viewBox="0 0 100 100" fill="none" xmlns="http://www.w3.org/2000/svg">
<g clip-path="url(#clip0_1_2)">
<rect x="18.0672" y="-0.0829163" width="84" height="84" rx="8" transform="rotate(12.4785 18.0672 -0.0829163)" fill="#AAAAAA"/>
<rect x="8" y="8" width="84" height="84" rx="8" fill="#EBEBEB"/>
<rect x="13" y="16" width="75" height="15" rx="3" fill="#D9D9D9"/>
<path d="M25 24.8571L27.8571 22L30.7143 24.8571L33.5714 22L36.4286 24.8571L39.2857 22L42.1429 24.8571L45 22L47.8571 24.8571L50.7143 22L53.5714 24.8571L56.4286 22L59.2857 24.8571L62.1429 22L65 24.8571L67.5 22" stroke="black"/>
<rect x="79" y="20" width="7" height="7" rx="1" fill="#FF6464"/>
<rect x="71" y="20" width="7" height="7" rx="1" fill="#BDBDBD"/>
<rect x="16" y="21" width="5" height="5" rx="2.5" fill="#AFAFAF"/>
<rect x="13" y="33" width="75" height="15" rx="3" fill="#D9D9D9"/>
<path d="M25 41.8571L27.8571 39L30.7143 41.8571L33.5714 39L36.4286 41.8571L39.2857 39L42.1429 41.8571L45 39L47.8571 41.8571L50.7143 39L53.5714 41.8571L56.4286 39L59.2857 41.8571L62.1429 39L65 41.8571L67.5 39" stroke="black"/>
<rect x="79" y="37" width="7" height="7" rx="1" fill="#FF6464"/>
<rect x="71" y="37" width="7" height="7" rx="1" fill="#BDBDBD"/>
<rect x="16" y="38" width="5" height="5" rx="2.5" fill="#33D17A"/>
<rect x="13" y="50" width="75" height="15" rx="3" fill="#D9D9D9"/>
<path d="M25 58.8571L27.8571 56L30.7143 58.8571L33.5714 56L36.4286 58.8571L39.2857 56L42.1429 58.8571L45 56L47.8571 58.8571L50.7143 56L53.5714 58.8571L56.4286 56L59.2857 58.8571L62.1429 56L65 58.8571L67.5 56" stroke="black"/>
<rect x="79" y="54" width="7" height="7" rx="1" fill="#FF6464"/>
<rect x="71" y="54" width="7" height="7" rx="1" fill="#BDBDBD"/>
<rect x="16" y="55" width="5" height="5" rx="2.5" fill="#33D17A"/>
<rect x="13" y="67" width="75" height="15" rx="3" fill="#D9D9D9"/>
<path d="M25 75.8571L27.8571 73L30.7143 75.8571L33.5714 73L36.4286 75.8571L39.2857 73L42.1429 75.8571L45 73L47.8571 75.8571L50.7143 73L53.5714 75.8571L56.4286 73L59.2857 75.8571L62.1429 73L65 75.8571L67.5 73" stroke="black"/>
<rect x="79" y="71" width="7" height="7" rx="1" fill="#FF6464"/>
<rect x="71" y="71" width="7" height="7" rx="1" fill="#BDBDBD"/>
<rect x="16" y="72" width="5" height="5" rx="2.5" fill="#AFAFAF"/>
</g>
<defs>
<clipPath id="clip0_1_2">
<rect width="100" height="100" fill="white"/>
</clipPath>
</defs>
</svg>
